<svg width="48" height="49" viewBox="0 0 48 49" fill="none" xmlns="http://www.w3.org/2000/svg">
<g id="Arrow - Left 2">
<g id="Iconly/Bold/Arrow   Left 2">
<g id="Arrow   Left 2">
<path id="Vector" d="M39.4359 20.98C39.2476 20.7867 38.5364 19.96 37.874 19.28C33.9902 15.0033 23.8587 8.00333 18.5559 5.86667C17.7506 5.52333 15.7145 4.79667 14.6267 4.75C13.5843 4.75 12.5906 4.99 11.6424 5.47667C10.4604 6.15667 9.51222 7.22667 8.99265 8.49C8.65818 9.36667 8.13862 11.99 8.13862 12.0367C7.61906 14.9067 7.33329 19.57 7.33329 24.7233C7.33329 29.6333 7.61905 34.1067 8.04445 37.02C8.09316 37.0667 8.61272 40.3267 9.181 41.4433C10.2234 43.4833 12.2594 44.75 14.4383 44.75H14.6267C16.0457 44.7 19.03 43.4333 19.03 43.3867C24.047 41.2467 33.9448 34.59 37.9227 30.1667C37.9227 30.1667 39.043 29.03 39.5301 28.32C40.2899 27.3 40.6666 26.0367 40.6666 24.7733C40.6666 23.3633 40.2412 22.05 39.4359 20.98Z" fill="white"/>
</g>
</g>
</g>
</svg>
