<svg width="24" height="24" viewBox="0 0 24 24" fill="none" xmlns="http://www.w3.org/2000/svg">
<g id="Arrow - Left 3">
<g id="Iconly/Bold/Arrow   Left 2">
<g id="Arrow   Left 2">
<path id="Vector" d="M19.718 10.115C19.6238 10.0183 19.2683 9.605 18.937 9.265C16.9952 7.12667 11.9294 3.62667 9.27801 2.55833C8.87535 2.38667 7.85732 2.02333 7.3134 2C6.79221 2 6.29538 2.12 5.82128 2.36333C5.23027 2.70333 4.75617 3.23833 4.49639 3.87C4.32915 4.30833 4.06937 5.62 4.06937 5.64333C3.80959 7.07833 3.66671 9.41 3.66671 11.9867C3.66671 14.4417 3.80959 16.6783 4.02229 18.135C4.04664 18.1583 4.30642 19.7883 4.59056 20.3467C5.11175 21.3667 6.12977 22 7.21923 22H7.3134C8.02293 21.975 9.51506 21.3417 9.51506 21.3183C12.0236 20.2483 16.9724 16.92 18.9614 14.7083C18.9614 14.7083 19.5216 14.14 19.7651 13.785C20.145 13.275 20.3334 12.6433 20.3334 12.0117C20.3334 11.3067 20.1207 10.65 19.718 10.115Z" fill="white"/>
</g>
</g>
</g>
</svg>
