<svg width="24" height="24" viewBox="0 0 24 24" fill="none" xmlns="http://www.w3.org/2000/svg">
<g id="Heart">
<g id="Iconly/Bold/Heart">
<g id="Heart_2">
<path id="Vector" d="M8.27977 2.50015C8.90977 2.51931 9.51977 2.62931 10.1108 2.83031H10.1698C10.2098 2.84931 10.2398 2.87031 10.2598 2.88931C10.4808 2.96031 10.6898 3.04031 10.8898 3.15031L11.2698 3.32031C11.4198 3.40031 11.5998 3.54931 11.6998 3.61031C11.7998 3.66931 11.9098 3.73031 11.9998 3.79931C13.1108 2.95031 14.4598 2.49031 15.8498 2.50015C16.4808 2.50015 17.1108 2.58931 17.7098 2.79031C21.4008 3.99031 22.7308 8.04031 21.6198 11.5803C20.9898 13.3893 19.9598 15.0403 18.6108 16.3893C16.6798 18.2593 14.5608 19.9193 12.2798 21.3493L12.0298 21.5003L11.7698 21.3393C9.48077 19.9193 7.34977 18.2593 5.40077 16.3793C4.06077 15.0303 3.02977 13.3893 2.38977 11.5803C1.25977 8.04031 2.58977 3.99031 6.32077 2.76931C6.61077 2.66931 6.90977 2.59931 7.20977 2.56031H7.32977C7.61077 2.51931 7.88977 2.50015 8.16977 2.50015H8.27977ZM17.1898 5.66031C16.7798 5.51931 16.3298 5.74031 16.1798 6.16031C16.0398 6.58031 16.2598 7.04031 16.6798 7.18931C17.3208 7.42931 17.7498 8.06031 17.7498 8.75931V8.79031C17.7308 9.01931 17.7998 9.24031 17.9398 9.41031C18.0798 9.58031 18.2898 9.67931 18.5098 9.70031C18.9198 9.68931 19.2698 9.36031 19.2998 8.93931V8.82031C19.3298 7.41931 18.4808 6.15031 17.1898 5.66031Z" fill="#3B4144"/>
</g>
</g>
<circle id="Ellipse 749" cx="18.4536" cy="18.4537" r="5.04647" fill="#D93C23" stroke="white"/>
</g>
</svg>
