<svg width="24" height="24" viewBox="0 0 24 24" fill="none" xmlns="http://www.w3.org/2000/svg">
<g id="Message">
<g id="Iconly/Bold/Message">
<g id="Message_2">
<path id="Vector" d="M16.9399 3C18.2809 3 19.5709 3.53 20.5199 4.481C21.4699 5.43 22.0009 6.71 22.0009 8.05V15.95C22.0009 18.74 19.7309 21 16.9399 21H7.06085C4.26985 21 2.00085 18.74 2.00085 15.95V8.05C2.00085 5.26 4.25985 3 7.06085 3H16.9399ZM18.0709 8.2C17.8609 8.189 17.6609 8.26 17.5099 8.4L13.0009 12C12.4209 12.481 11.5899 12.481 11.0009 12L6.50085 8.4C6.18985 8.17 5.75985 8.2 5.50085 8.47C5.23085 8.74 5.20085 9.17 5.42985 9.47L5.56085 9.6L10.1109 13.15C10.6709 13.59 11.3499 13.83 12.0609 13.83C12.7699 13.83 13.4609 13.59 14.0199 13.15L18.5309 9.54L18.6109 9.46C18.8499 9.17 18.8499 8.75 18.5999 8.46C18.4609 8.311 18.2699 8.22 18.0709 8.2Z" fill="white"/>
</g>
</g>
</g>
</svg>
